<svg width="6547" height="6547" viewBox="0 0 6547 6547" fill="none" xmlns="http://www.w3.org/2000/svg">
<path fill-rule="evenodd" clip-rule="evenodd" d="M4784.91 4090.55C4784.91 4824.21 4190.16 5418.96 3456.51 5418.96C2722.85 5418.96 2128.1 4824.21 2128.1 4090.55C2128.1 3356.89 2722.85 2762.15 3456.51 2762.15C4190.16 2762.15 4784.91 3356.89 4784.91 4090.55Z" fill="#ECE8E1"/>
<path fill-rule="evenodd" clip-rule="evenodd" d="M4081.97 1753.51C4081.97 2098.95 3801.94 2378.98 3456.51 2378.98C3111.07 2378.98 2831.04 2098.95 2831.04 1753.51C2831.04 1408.07 3111.07 1128.04 3456.51 1128.04C3801.94 1128.04 4081.97 1408.07 4081.97 1753.51Z" fill="#ECE8E1"/>
<path d="M4415.37 3556.79C4355.68 3449.73 4277.99 3354.04 4187.04 3273.5C4135.87 3228.02 4079.98 3187.28 4021.23 3152.23C4060.08 3104.85 4096.08 3054.64 4126.4 3001.58C4128.29 2997.79 4129.24 2995.9 4131.13 2993.05C4219.25 2835.77 4269.46 2654.81 4269.47 2462.48C4269.46 2272.04 4220.19 2092.97 4133.98 1937.58C4132.09 1932.84 4129.24 1928.11 4126.4 1923.37C3939.75 1597.45 3588.24 1378.58 3185.57 1378.58H1762.09V1937.58H3303.05C3543.71 1990.64 3723.73 2205.72 3723.73 2462.48C3723.73 2725.57 3537.31 2996.5 3283.72 2993.25C3224.07 2618.25 2951.38 2441.93 2518.61 2441.93C2260.43 2441.93 1999.25 2510.97 1822.13 2637.06L1990.24 2964.29C2107.32 2871.22 2284.45 2814.18 2455.57 2814.18C2707.74 2814.18 2827.82 2931.26 2827.82 3132.4H2455.57C1963.22 3132.4 1762.09 3330.54 1762.09 3615.74C1762.09 3894.93 1987.24 4105.07 2365.5 4105.07C2602.67 4105.07 2770.79 4027.02 2857.84 3879.92V4081.06H3296.15V3550.58L3569.3 3556.79C3822.87 3562.55 4006.07 3823.03 4006.07 4084.52C4006.07 4343.18 3823.21 4559.2 3580.67 4611.31H1762.09V5168.42H3185.57C3233.89 5168.42 3281.27 5165.58 3327.69 5158.95C3373.17 5165.58 3420.54 5168.42 3468.86 5168.42C3876.27 5168.42 4231.56 4943.87 4416.32 4611.31C4502.54 4454.98 4551.81 4275.91 4551.81 4084.52C4551.81 3893.14 4502.54 3713.12 4415.37 3556.79V3556.79ZM2482.59 3789.86C2317.47 3789.86 2218.4 3711.8 2218.4 3594.72C2218.4 3486.64 2287.45 3405.59 2506.6 3405.59H2827.82V3570.7C2773.79 3717.81 2638.69 3789.86 2482.59 3789.86Z" fill="#FF4655"/>
</svg>
